# Blender v2.71 (sub 0) OBJ File: 'cloudPlane.blend'
# www.blender.org
v -1.000000 -0.070227 1.000000
v 1.000000 -0.070227 1.000000
v -1.000000 -0.070227 -1.000000
v 1.000000 -0.070227 -1.000000
v -1.000000 -0.055017 -0.833333
v -1.000000 -0.039368 -0.666667
v -1.000000 -0.025040 -0.500000
v -1.000000 -0.013566 -0.333333
v -1.000000 -0.006155 -0.166667
v -1.000000 -0.003594 0.000000
v -1.000000 -0.006155 0.166667
v -1.000000 -0.013566 0.333333
v -1.000000 -0.025040 0.500000
v -1.000000 -0.039368 0.666667
v -1.000000 -0.055017 0.833333
v -0.833333 -0.055017 1.000000
v -0.666667 -0.039368 1.000000
v -0.500000 -0.025040 1.000000
v -0.333333 -0.013566 1.000000
v -0.166667 -0.006155 1.000000
v 0.000000 -0.003594 1.000000
v 0.166667 -0.006155 1.000000
v 0.333333 -0.013566 1.000000
v 0.500000 -0.025040 1.000000
v 0.666667 -0.039368 1.000000
v 0.833333 -0.055017 1.000000
v 1.000000 -0.055017 0.833333
v 1.000000 -0.039368 0.666667
v 1.000000 -0.025040 0.500000
v 1.000000 -0.013566 0.333333
v 1.000000 -0.006155 0.166667
v 1.000000 -0.003594 -0.000000
v 1.000000 -0.006155 -0.166667
v 1.000000 -0.013566 -0.333333
v 1.000000 -0.025040 -0.500000
v 1.000000 -0.039368 -0.666667
v 1.000000 -0.055017 -0.833333
v 0.833333 -0.055017 -1.000000
v 0.666667 -0.039368 -1.000000
v 0.500000 -0.025040 -1.000000
v 0.333333 -0.013566 -1.000000
v 0.166667 -0.006155 -1.000000
v -0.000000 -0.003594 -1.000000
v -0.166667 -0.006155 -1.000000
v -0.333333 -0.013566 -1.000000
v -0.500000 -0.025040 -1.000000
v -0.666667 -0.039368 -1.000000
v -0.833333 -0.055017 -1.000000
v -0.833333 -0.035474 0.833333
v -0.833333 -0.015947 0.666667
v -0.833333 0.001668 0.500000
v -0.833333 0.015675 0.333333
v -0.833333 0.024695 0.166667
v -0.833333 0.027810 -0.000000
v -0.833333 0.024695 -0.166667
v -0.833333 0.015675 -0.333333
v -0.833333 0.001668 -0.500000
v -0.833333 -0.015947 -0.666667
v -0.833333 -0.035474 -0.833333
v -0.666667 -0.015947 0.833333
v -0.666667 0.007122 0.666667
v -0.666667 0.027810 0.500000
v -0.666667 0.044245 0.333333
v -0.666667 0.054845 0.166667
v -0.666667 0.058511 -0.000000
v -0.666667 0.054845 -0.166667
v -0.666667 0.044245 -0.333333
v -0.666667 0.027810 -0.500000
v -0.666667 0.007122 -0.666667
v -0.666667 -0.015947 -0.833333
v -0.500000 0.001668 0.833333
v -0.500000 0.027810 0.666667
v -0.500000 0.051246 0.500000
v -0.500000 0.069938 0.333333
v -0.500000 0.082064 0.166667
v -0.500000 0.086277 -0.000000
v -0.500000 0.082064 -0.166667
v -0.500000 0.069938 -0.333333
v -0.500000 0.051246 -0.500000
v -0.500000 0.027810 -0.666667
v -0.500000 0.001668 -0.833333
v -0.333333 0.015675 0.833333
v -0.333333 0.044245 0.666667
v -0.333333 0.069938 0.500000
v -0.333333 0.090583 0.333333
v -0.333333 0.104124 0.166667
v -0.333333 0.108874 -0.000000
v -0.333333 0.104124 -0.166667
v -0.333333 0.090583 -0.333333
v -0.333333 0.069938 -0.500000
v -0.333333 0.044245 -0.666667
v -0.333333 0.015675 -0.833333
v -0.166667 0.024695 0.833333
v -0.166667 0.054845 0.666667
v -0.166667 0.082064 0.500000
v -0.166667 0.104124 0.333333
v -0.166667 0.118817 0.166667
v -0.166667 0.124070 -0.000000
v -0.166667 0.118817 -0.166667
v -0.166667 0.104124 -0.333333
v -0.166667 0.082064 -0.500000
v -0.166667 0.054845 -0.666667
v -0.166667 0.024695 -0.833333
v 0.000000 0.027810 0.833333
v 0.000000 0.058511 0.666667
v 0.000000 0.086277 0.500000
v 0.000000 0.108874 0.333333
v 0.000000 0.124070 0.166667
v 0.000000 0.129631 -0.000000
v -0.000000 0.124070 -0.166667
v -0.000000 0.108874 -0.333333
v -0.000000 0.086277 -0.500000
v -0.000000 0.058511 -0.666667
v -0.000000 0.027810 -0.833333
v 0.166667 0.024695 0.833333
v 0.166667 0.054845 0.666667
v 0.166667 0.082064 0.500000
v 0.166667 0.104124 0.333333
v 0.166667 0.118817 0.166667
v 0.166667 0.124070 -0.000000
v 0.166667 0.118817 -0.166667
v 0.166667 0.104124 -0.333333
v 0.166667 0.082064 -0.500000
v 0.166667 0.054845 -0.666667
v 0.166667 0.024695 -0.833333
v 0.333333 0.015675 0.833333
v 0.333333 0.044245 0.666667
v 0.333333 0.069938 0.500000
v 0.333333 0.090583 0.333333
v 0.333333 0.104124 0.166667
v 0.333333 0.108874 -0.000000
v 0.333333 0.104124 -0.166667
v 0.333333 0.090583 -0.333333
v 0.333333 0.069938 -0.500000
v 0.333333 0.044245 -0.666667
v 0.333333 0.015675 -0.833333
v 0.500000 0.001668 0.833333
v 0.500000 0.027810 0.666667
v 0.500000 0.051246 0.500000
v 0.500000 0.069938 0.333333
v 0.500000 0.082064 0.166667
v 0.500000 0.086277 -0.000000
v 0.500000 0.082064 -0.166667
v 0.500000 0.069938 -0.333333
v 0.500000 0.051246 -0.500000
v 0.500000 0.027810 -0.666667
v 0.500000 0.001668 -0.833333
v 0.666667 -0.015947 0.833333
v 0.666667 0.007122 0.666667
v 0.666667 0.027810 0.500000
v 0.666667 0.044245 0.333333
v 0.666667 0.054845 0.166667
v 0.666667 0.058511 -0.000000
v 0.666667 0.054845 -0.166667
v 0.666667 0.044245 -0.333333
v 0.666667 0.027810 -0.500000
v 0.666667 0.007122 -0.666667
v 0.666667 -0.015947 -0.833333
v 0.833333 -0.035474 0.833333
v 0.833333 -0.015947 0.666667
v 0.833333 0.001668 0.500000
v 0.833333 0.015675 0.333333
v 0.833333 0.024695 0.166667
v 0.833333 0.027810 -0.000000
v 0.833333 0.024695 -0.166667
v 0.833333 0.015675 -0.333333
v 0.833333 0.001668 -0.500000
v 0.833333 -0.015947 -0.666667
v 0.833333 -0.035474 -0.833333
vt 0.916667 0.916667
vt 0.916667 1.000000
vt 1.000000 1.000000
vt 0.000000 1.000000
vt 0.083333 1.000000
vt 0.083333 0.916667
vt 0.166667 1.000000
vt 0.166667 0.916667
vt 0.250000 1.000000
vt 0.250000 0.916667
vt 0.333333 1.000000
vt 0.333333 0.916667
vt 0.416667 1.000000
vt 0.416667 0.916667
vt 0.500000 1.000000
vt 0.500000 0.916667
vt 0.583333 1.000000
vt 0.583333 0.916667
vt 0.666667 1.000000
vt 0.666667 0.916667
vt 0.750000 1.000000
vt 0.750000 0.916667
vt 0.833333 1.000000
vt 0.833333 0.916667
vt 0.000000 0.000000
vt 0.000000 0.083333
vt 0.083333 0.083333
vt 0.000000 0.166667
vt 0.083333 0.166667
vt 0.000000 0.250000
vt 0.083333 0.250000
vt 0.000000 0.333333
vt 0.083333 0.333333
vt 0.000000 0.416667
vt 0.083333 0.416667
vt 0.000000 0.500000
vt 0.083333 0.500000
vt 0.000000 0.583333
vt 0.083333 0.583333
vt 0.000000 0.666667
vt 0.083333 0.666667
vt 0.000000 0.750000
vt 0.083333 0.750000
vt 0.000000 0.833333
vt 0.083333 0.833333
vt 0.000000 0.916667
vt 0.083333 0.000000
vt 0.166667 0.083333
vt 0.166667 0.166667
vt 0.166667 0.250000
vt 0.166667 0.333333
vt 0.166667 0.416667
vt 0.166667 0.500000
vt 0.166667 0.583333
vt 0.166667 0.666667
vt 0.166667 0.750000
vt 0.166667 0.833333
vt 0.166667 0.000000
vt 0.250000 0.083333
vt 0.250000 0.166667
vt 0.250000 0.250000
vt 0.250000 0.333333
vt 0.250000 0.416667
vt 0.250000 0.500000
vt 0.250000 0.583333
vt 0.250000 0.666667
vt 0.250000 0.750000
vt 0.250000 0.833333
vt 0.250000 0.000000
vt 0.333333 0.083333
vt 0.333333 0.166667
vt 0.333333 0.250000
vt 0.333333 0.333333
vt 0.333333 0.416667
vt 0.333333 0.500000
vt 0.333333 0.583333
vt 0.333333 0.666667
vt 0.333333 0.750000
vt 0.333333 0.833333
vt 0.333333 0.000000
vt 0.416667 0.083333
vt 0.416667 0.166667
vt 0.416667 0.250000
vt 0.416667 0.333333
vt 0.416667 0.416667
vt 0.416667 0.500000
vt 0.416667 0.583333
vt 0.416667 0.666667
vt 0.416667 0.750000
vt 0.416667 0.833333
vt 0.416667 0.000000
vt 0.500000 0.083333
vt 0.500000 0.166667
vt 0.500000 0.250000
vt 0.500000 0.333333
vt 0.500000 0.416667
vt 0.500000 0.500000
vt 0.500000 0.583333
vt 0.500000 0.666667
vt 0.500000 0.750000
vt 0.500000 0.833333
vt 0.583333 0.083333
vt 0.583333 0.000000
vt 0.583333 0.166667
vt 0.583333 0.250000
vt 0.583333 0.333333
vt 0.583333 0.416667
vt 0.583333 0.500000
vt 0.583333 0.583333
vt 0.583333 0.666667
vt 0.583333 0.750000
vt 0.583333 0.833333
vt 0.666667 0.083333
vt 0.666667 0.000000
vt 0.666667 0.166667
vt 0.666667 0.250000
vt 0.666667 0.333333
vt 0.666667 0.416667
vt 0.666667 0.500000
vt 0.666667 0.583333
vt 0.666667 0.666667
vt 0.666667 0.750000
vt 0.666667 0.833333
vt 0.750000 0.083333
vt 0.750000 0.000000
vt 0.750000 0.166667
vt 0.750000 0.250000
vt 0.750000 0.333333
vt 0.750000 0.416667
vt 0.750000 0.500000
vt 0.750000 0.583333
vt 0.750000 0.666667
vt 0.750000 0.750000
vt 0.750000 0.833333
vt 0.833333 0.083333
vt 0.833333 0.000000
vt 0.833333 0.166667
vt 0.833333 0.250000
vt 0.833333 0.333333
vt 0.833333 0.416667
vt 0.833333 0.500000
vt 0.833333 0.583333
vt 0.833333 0.666667
vt 0.833333 0.750000
vt 0.833333 0.833333
vt 0.916667 0.083333
vt 0.916667 0.000000
vt 0.916667 0.166667
vt 0.916667 0.250000
vt 0.916667 0.333333
vt 0.916667 0.416667
vt 0.916667 0.500000
vt 0.916667 0.583333
vt 0.916667 0.666667
vt 0.916667 0.750000
vt 0.916667 0.833333
vt 1.000000 0.083333
vt 1.000000 0.000000
vt 1.000000 0.166667
vt 1.000000 0.250000
vt 1.000000 0.333333
vt 1.000000 0.416667
vt 1.000000 0.500000
vt 1.000000 0.583333
vt 1.000000 0.666667
vt 1.000000 0.750000
vt 1.000000 0.833333
vt 1.000000 0.916667
vt 0.500000 0.000000
vn -0.115000 -0.986700 0.115000
vn -0.097100 -0.987800 0.121500
vn -0.103100 -0.989300 0.103100
vn 0.103100 -0.989300 0.103100
vn 0.097100 -0.987800 0.121500
vn 0.115000 -0.986700 0.115000
vn 0.093400 -0.985300 0.143300
vn 0.109100 -0.984600 0.136700
vn 0.079900 -0.983700 0.161400
vn 0.092700 -0.983500 0.155300
vn 0.058100 -0.982900 0.174800
vn 0.067200 -0.983200 0.169800
vn 0.030200 -0.982700 0.182700
vn 0.035000 -0.983200 0.179100
vn 0.000000 -0.982700 0.185200
vn 0.000000 -0.983200 0.182300
vn -0.030200 -0.982700 0.182700
vn -0.035000 -0.983200 0.179100
vn -0.058100 -0.982900 0.174800
vn -0.067200 -0.983200 0.169800
vn -0.079900 -0.983700 0.161400
vn -0.092700 -0.983500 0.155300
vn -0.093400 -0.985300 0.143300
vn -0.109100 -0.984600 0.136700
vn 0.103100 -0.989300 -0.103100
vn 0.121500 -0.987800 -0.097100
vn 0.115000 -0.986700 -0.115000
vn 0.143300 -0.985300 -0.093400
vn 0.136700 -0.984600 -0.109100
vn 0.161400 -0.983700 -0.079900
vn 0.155300 -0.983500 -0.092700
vn 0.174800 -0.982900 -0.058100
vn 0.169800 -0.983200 -0.067200
vn 0.182700 -0.982700 -0.030200
vn 0.179100 -0.983200 -0.035000
vn 0.185200 -0.982700 -0.000000
vn 0.182300 -0.983200 0.000000
vn 0.182700 -0.982700 0.030200
vn 0.179100 -0.983200 0.035000
vn 0.174800 -0.982900 0.058100
vn 0.169800 -0.983200 0.067200
vn 0.161400 -0.983700 0.079900
vn 0.155300 -0.983500 0.092700
vn 0.143300 -0.985300 0.093400
vn 0.136700 -0.984600 0.109100
vn 0.121500 -0.987800 0.097100
vn 0.097100 -0.987800 -0.121500
vn 0.109100 -0.984600 -0.136700
vn 0.128500 -0.983300 -0.128500
vn 0.145600 -0.983300 -0.108900
vn 0.159500 -0.984000 -0.079100
vn 0.168700 -0.984800 -0.041400
vn 0.171900 -0.985100 0.000000
vn 0.168700 -0.984800 0.041400
vn 0.159500 -0.984000 0.079100
vn 0.145600 -0.983300 0.108900
vn 0.128500 -0.983300 0.128500
vn 0.093400 -0.985300 -0.143300
vn 0.092700 -0.983500 -0.155300
vn 0.108900 -0.983300 -0.145600
vn 0.123800 -0.984500 -0.123800
vn 0.136500 -0.986500 -0.090500
vn 0.145300 -0.988200 -0.047700
vn 0.148500 -0.988900 0.000000
vn 0.145300 -0.988200 0.047700
vn 0.136500 -0.986500 0.090500
vn 0.123800 -0.984500 0.123800
vn 0.108900 -0.983300 0.145600
vn 0.079900 -0.983700 -0.161400
vn 0.067200 -0.983200 -0.169800
vn 0.079100 -0.984000 -0.159500
vn 0.090500 -0.986500 -0.136500
vn 0.100900 -0.989700 -0.100900
vn 0.108700 -0.992600 -0.053700
vn 0.111800 -0.993700 0.000000
vn 0.108700 -0.992600 0.053700
vn 0.100900 -0.989700 0.100900
vn 0.090500 -0.986500 0.136500
vn 0.079100 -0.984000 0.159500
vn 0.058100 -0.982900 -0.174800
vn 0.035000 -0.983200 -0.179100
vn 0.041400 -0.984800 -0.168700
vn 0.047700 -0.988200 -0.145300
vn 0.053700 -0.992600 -0.108700
vn 0.058900 -0.996500 -0.058900
vn 0.061300 -0.998100 0.000000
vn 0.058900 -0.996500 0.058900
vn 0.053700 -0.992600 0.108700
vn 0.047700 -0.988200 0.145300
vn 0.041400 -0.984800 0.168700
vn 0.030200 -0.982700 -0.182700
vn 0.000000 -0.983200 -0.182300
vn 0.000000 -0.985100 -0.171900
vn 0.000000 -0.988900 -0.148500
vn 0.000000 -0.993700 -0.111800
vn 0.000000 -0.998100 -0.061300
vn 0.000000 -1.000000 0.000000
vn 0.000000 -0.998100 0.061300
vn 0.000000 -0.993700 0.111800
vn 0.000000 -0.988900 0.148500
vn 0.000000 -0.985100 0.171900
vn -0.035000 -0.983200 -0.179100
vn -0.030200 -0.982700 -0.182700
vn -0.041400 -0.984800 -0.168700
vn -0.047700 -0.988200 -0.145300
vn -0.053700 -0.992600 -0.108700
vn -0.058900 -0.996500 -0.058900
vn -0.061300 -0.998100 0.000000
vn -0.058900 -0.996500 0.058900
vn -0.053700 -0.992600 0.108700
vn -0.047700 -0.988200 0.145300
vn -0.041400 -0.984800 0.168700
vn -0.067200 -0.983200 -0.169800
vn -0.058100 -0.982900 -0.174800
vn -0.079100 -0.984000 -0.159500
vn -0.090500 -0.986500 -0.136500
vn -0.100900 -0.989700 -0.100900
vn -0.108700 -0.992600 -0.053700
vn -0.111800 -0.993700 0.000000
vn -0.108700 -0.992600 0.053700
vn -0.100900 -0.989700 0.100900
vn -0.090500 -0.986500 0.136500
vn -0.079100 -0.984000 0.159500
vn -0.092700 -0.983500 -0.155300
vn -0.079900 -0.983700 -0.161400
vn -0.108900 -0.983300 -0.145600
vn -0.123800 -0.984500 -0.123800
vn -0.136500 -0.986500 -0.090500
vn -0.145300 -0.988200 -0.047700
vn -0.148500 -0.988900 0.000000
vn -0.145300 -0.988200 0.047700
vn -0.136500 -0.986500 0.090500
vn -0.123800 -0.984500 0.123800
vn -0.108900 -0.983300 0.145600
vn -0.109100 -0.984600 -0.136700
vn -0.093400 -0.985300 -0.143300
vn -0.128500 -0.983300 -0.128500
vn -0.145600 -0.983300 -0.108900
vn -0.159500 -0.984000 -0.079100
vn -0.168700 -0.984800 -0.041400
vn -0.171900 -0.985100 0.000000
vn -0.168700 -0.984800 0.041400
vn -0.159500 -0.984000 0.079100
vn -0.145600 -0.983300 0.108900
vn -0.128500 -0.983300 0.128500
vn -0.115000 -0.986700 -0.115000
vn -0.097100 -0.987800 -0.121500
vn -0.136700 -0.984600 -0.109100
vn -0.155300 -0.983500 -0.092700
vn -0.169800 -0.983200 -0.067200
vn -0.179100 -0.983200 -0.035000
vn -0.182300 -0.983200 0.000000
vn -0.179100 -0.983200 0.035000
vn -0.169800 -0.983200 0.067200
vn -0.155300 -0.983500 0.092700
vn -0.136700 -0.984600 0.109100
vn -0.121500 -0.987800 -0.097100
vn -0.103100 -0.989300 -0.103100
vn -0.143300 -0.985300 -0.093400
vn -0.161400 -0.983700 -0.079900
vn -0.174800 -0.982900 -0.058100
vn -0.182700 -0.982700 -0.030200
vn -0.185200 -0.982700 0.000000
vn -0.182700 -0.982700 0.030200
vn -0.174800 -0.982900 0.058100
vn -0.161400 -0.983700 0.079900
vn -0.143300 -0.985300 0.093400
vn -0.121500 -0.987800 0.097100
vn -0.000000 -0.982700 -0.185200
s 1
f 169/1/1 38/2/2 4/3/3
f 3/4/4 48/5/5 59/6/6
f 48/5/5 47/7/7 70/8/8
f 47/7/7 46/9/9 81/10/10
f 46/9/9 45/11/11 92/12/12
f 45/11/11 44/13/13 103/14/14
f 44/13/13 43/15/15 114/16/16
f 114/16/16 43/15/15 42/17/17
f 125/18/18 42/17/17 41/19/19
f 136/20/20 41/19/19 40/21/21
f 147/22/22 40/21/21 39/23/23
f 158/24/24 39/23/23 38/2/2
f 1/25/25 15/26/26 49/27/27
f 15/26/26 14/28/28 50/29/29
f 14/28/28 13/30/30 51/31/31
f 13/30/30 12/32/32 52/33/33
f 12/32/32 11/34/34 53/35/35
f 11/34/34 10/36/36 54/37/37
f 9/38/38 55/39/39 54/37/37
f 8/40/40 56/41/41 55/39/39
f 7/42/42 57/43/43 56/41/41
f 6/44/44 58/45/45 57/43/43
f 5/46/46 59/6/6 58/45/45
f 16/47/47 49/27/27 60/48/48
f 49/27/27 50/29/29 61/49/49
f 50/29/29 51/31/31 62/50/50
f 51/31/31 52/33/33 63/51/51
f 52/33/33 53/35/35 64/52/52
f 53/35/35 54/37/37 65/53/53
f 55/39/39 66/54/54 65/53/53
f 56/41/41 67/55/55 66/54/54
f 57/43/43 68/56/56 67/55/55
f 58/45/45 69/57/57 68/56/56
f 59/6/6 70/8/8 69/57/57
f 17/58/58 60/48/48 71/59/59
f 60/48/48 61/49/49 72/60/60
f 61/49/49 62/50/50 73/61/61
f 62/50/50 63/51/51 74/62/62
f 63/51/51 64/52/52 75/63/63
f 64/52/52 65/53/53 76/64/64
f 66/54/54 77/65/65 76/64/64
f 67/55/55 78/66/66 77/65/65
f 68/56/56 79/67/67 78/66/66
f 69/57/57 80/68/68 79/67/67
f 70/8/8 81/10/10 80/68/68
f 18/69/69 71/59/59 82/70/70
f 71/59/59 72/60/60 83/71/71
f 72/60/60 73/61/61 84/72/72
f 73/61/61 74/62/62 85/73/73
f 74/62/62 75/63/63 86/74/74
f 75/63/63 76/64/64 87/75/75
f 77/65/65 88/76/76 87/75/75
f 78/66/66 89/77/77 88/76/76
f 79/67/67 90/78/78 89/77/77
f 80/68/68 91/79/79 90/78/78
f 81/10/10 92/12/12 91/79/79
f 19/80/80 82/70/70 93/81/81
f 82/70/70 83/71/71 94/82/82
f 83/71/71 84/72/72 95/83/83
f 84/72/72 85/73/73 96/84/84
f 85/73/73 86/74/74 97/85/85
f 86/74/74 87/75/75 98/86/86
f 88/76/76 99/87/87 98/86/86
f 89/77/77 100/88/88 99/87/87
f 90/78/78 101/89/89 100/88/88
f 91/79/79 102/90/90 101/89/89
f 92/12/12 103/14/14 102/90/90
f 20/91/91 93/81/81 104/92/92
f 93/81/81 94/82/82 105/93/93
f 94/82/82 95/83/83 106/94/94
f 95/83/83 96/84/84 107/95/95
f 96/84/84 97/85/85 108/96/96
f 97/85/85 98/86/86 109/97/97
f 99/87/87 110/98/98 109/97/97
f 100/88/88 111/99/99 110/98/98
f 101/89/89 112/100/100 111/99/99
f 102/90/90 113/101/101 112/100/100
f 103/14/14 114/16/16 113/101/101
f 104/92/92 115/102/102 22/103/103
f 105/93/93 116/104/104 115/102/102
f 106/94/94 117/105/105 116/104/104
f 107/95/95 118/106/106 117/105/105
f 108/96/96 119/107/107 118/106/106
f 109/97/97 120/108/108 119/107/107
f 109/97/97 110/98/98 121/109/109
f 110/98/98 111/99/99 122/110/110
f 111/99/99 112/100/100 123/111/111
f 112/100/100 113/101/101 124/112/112
f 113/101/101 114/16/16 125/18/18
f 115/102/102 126/113/113 23/114/114
f 116/104/104 127/115/115 126/113/113
f 117/105/105 128/116/116 127/115/115
f 118/106/106 129/117/117 128/116/116
f 119/107/107 130/118/118 129/117/117
f 120/108/108 131/119/119 130/118/118
f 120/108/108 121/109/109 132/120/120
f 121/109/109 122/110/110 133/121/121
f 122/110/110 123/111/111 134/122/122
f 123/111/111 124/112/112 135/123/123
f 124/112/112 125/18/18 136/20/20
f 126/113/113 137/124/124 24/125/125
f 127/115/115 138/126/126 137/124/124
f 128/116/116 139/127/127 138/126/126
f 129/117/117 140/128/128 139/127/127
f 130/118/118 141/129/129 140/128/128
f 131/119/119 142/130/130 141/129/129
f 131/119/119 132/120/120 143/131/131
f 132/120/120 133/121/121 144/132/132
f 133/121/121 134/122/122 145/133/133
f 134/122/122 135/123/123 146/134/134
f 135/123/123 136/20/20 147/22/22
f 137/124/124 148/135/135 25/136/136
f 138/126/126 149/137/137 148/135/135
f 139/127/127 150/138/138 149/137/137
f 140/128/128 151/139/139 150/138/138
f 141/129/129 152/140/140 151/139/139
f 142/130/130 153/141/141 152/140/140
f 142/130/130 143/131/131 154/142/142
f 143/131/131 144/132/132 155/143/143
f 144/132/132 145/133/133 156/144/144
f 145/133/133 146/134/134 157/145/145
f 146/134/134 147/22/22 158/24/24
f 148/135/135 159/146/146 26/147/147
f 149/137/137 160/148/148 159/146/146
f 150/138/138 161/149/149 160/148/148
f 151/139/139 162/150/150 161/149/149
f 152/140/140 163/151/151 162/150/150
f 153/141/141 164/152/152 163/151/151
f 153/141/141 154/142/142 165/153/153
f 154/142/142 155/143/143 166/154/154
f 155/143/143 156/144/144 167/155/155
f 156/144/144 157/145/145 168/156/156
f 157/145/145 158/24/24 169/1/1
f 159/146/146 27/157/157 2/158/158
f 160/148/148 28/159/159 27/157/157
f 161/149/149 29/160/160 28/159/159
f 162/150/150 30/161/161 29/160/160
f 163/151/151 31/162/162 30/161/161
f 164/152/152 32/163/163 31/162/162
f 164/152/152 165/153/153 33/164/164
f 165/153/153 166/154/154 34/165/165
f 166/154/154 167/155/155 35/166/166
f 167/155/155 168/156/156 36/167/167
f 168/156/156 169/1/1 37/168/168
f 37/168/168 169/1/1 4/3/3
f 5/46/46 3/4/4 59/6/6
f 59/6/6 48/5/5 70/8/8
f 70/8/8 47/7/7 81/10/10
f 81/10/10 46/9/9 92/12/12
f 92/12/12 45/11/11 103/14/14
f 103/14/14 44/13/13 114/16/16
f 125/18/18 114/16/16 42/17/17
f 136/20/20 125/18/18 41/19/19
f 147/22/22 136/20/20 40/21/21
f 158/24/24 147/22/22 39/23/23
f 169/1/1 158/24/24 38/2/2
f 16/47/47 1/25/25 49/27/27
f 49/27/27 15/26/26 50/29/29
f 50/29/29 14/28/28 51/31/31
f 51/31/31 13/30/30 52/33/33
f 52/33/33 12/32/32 53/35/35
f 53/35/35 11/34/34 54/37/37
f 10/36/36 9/38/38 54/37/37
f 9/38/38 8/40/40 55/39/39
f 8/40/40 7/42/42 56/41/41
f 7/42/42 6/44/44 57/43/43
f 6/44/44 5/46/46 58/45/45
f 17/58/58 16/47/47 60/48/48
f 60/48/48 49/27/27 61/49/49
f 61/49/49 50/29/29 62/50/50
f 62/50/50 51/31/31 63/51/51
f 63/51/51 52/33/33 64/52/52
f 64/52/52 53/35/35 65/53/53
f 54/37/37 55/39/39 65/53/53
f 55/39/39 56/41/41 66/54/54
f 56/41/41 57/43/43 67/55/55
f 57/43/43 58/45/45 68/56/56
f 58/45/45 59/6/6 69/57/57
f 18/69/69 17/58/58 71/59/59
f 71/59/59 60/48/48 72/60/60
f 72/60/60 61/49/49 73/61/61
f 73/61/61 62/50/50 74/62/62
f 74/62/62 63/51/51 75/63/63
f 75/63/63 64/52/52 76/64/64
f 65/53/53 66/54/54 76/64/64
f 66/54/54 67/55/55 77/65/65
f 67/55/55 68/56/56 78/66/66
f 68/56/56 69/57/57 79/67/67
f 69/57/57 70/8/8 80/68/68
f 19/80/80 18/69/69 82/70/70
f 82/70/70 71/59/59 83/71/71
f 83/71/71 72/60/60 84/72/72
f 84/72/72 73/61/61 85/73/73
f 85/73/73 74/62/62 86/74/74
f 86/74/74 75/63/63 87/75/75
f 76/64/64 77/65/65 87/75/75
f 77/65/65 78/66/66 88/76/76
f 78/66/66 79/67/67 89/77/77
f 79/67/67 80/68/68 90/78/78
f 80/68/68 81/10/10 91/79/79
f 20/91/91 19/80/80 93/81/81
f 93/81/81 82/70/70 94/82/82
f 94/82/82 83/71/71 95/83/83
f 95/83/83 84/72/72 96/84/84
f 96/84/84 85/73/73 97/85/85
f 97/85/85 86/74/74 98/86/86
f 87/75/75 88/76/76 98/86/86
f 88/76/76 89/77/77 99/87/87
f 89/77/77 90/78/78 100/88/88
f 90/78/78 91/79/79 101/89/89
f 91/79/79 92/12/12 102/90/90
f 21/169/169 20/91/91 104/92/92
f 104/92/92 93/81/81 105/93/93
f 105/93/93 94/82/82 106/94/94
f 106/94/94 95/83/83 107/95/95
f 107/95/95 96/84/84 108/96/96
f 108/96/96 97/85/85 109/97/97
f 98/86/86 99/87/87 109/97/97
f 99/87/87 100/88/88 110/98/98
f 100/88/88 101/89/89 111/99/99
f 101/89/89 102/90/90 112/100/100
f 102/90/90 103/14/14 113/101/101
f 21/169/169 104/92/92 22/103/103
f 104/92/92 105/93/93 115/102/102
f 105/93/93 106/94/94 116/104/104
f 106/94/94 107/95/95 117/105/105
f 107/95/95 108/96/96 118/106/106
f 108/96/96 109/97/97 119/107/107
f 120/108/108 109/97/97 121/109/109
f 121/109/109 110/98/98 122/110/110
f 122/110/110 111/99/99 123/111/111
f 123/111/111 112/100/100 124/112/112
f 124/112/112 113/101/101 125/18/18
f 22/103/103 115/102/102 23/114/114
f 115/102/102 116/104/104 126/113/113
f 116/104/104 117/105/105 127/115/115
f 117/105/105 118/106/106 128/116/116
f 118/106/106 119/107/107 129/117/117
f 119/107/107 120/108/108 130/118/118
f 131/119/119 120/108/108 132/120/120
f 132/120/120 121/109/109 133/121/121
f 133/121/121 122/110/110 134/122/122
f 134/122/122 123/111/111 135/123/123
f 135/123/123 124/112/112 136/20/20
f 23/114/114 126/113/113 24/125/125
f 126/113/113 127/115/115 137/124/124
f 127/115/115 128/116/116 138/126/126
f 128/116/116 129/117/117 139/127/127
f 129/117/117 130/118/118 140/128/128
f 130/118/118 131/119/119 141/129/129
f 142/130/130 131/119/119 143/131/131
f 143/131/131 132/120/120 144/132/132
f 144/132/132 133/121/121 145/133/133
f 145/133/133 134/122/122 146/134/134
f 146/134/134 135/123/123 147/22/22
f 24/125/125 137/124/124 25/136/136
f 137/124/124 138/126/126 148/135/135
f 138/126/126 139/127/127 149/137/137
f 139/127/127 140/128/128 150/138/138
f 140/128/128 141/129/129 151/139/139
f 141/129/129 142/130/130 152/140/140
f 153/141/141 142/130/130 154/142/142
f 154/142/142 143/131/131 155/143/143
f 155/143/143 144/132/132 156/144/144
f 156/144/144 145/133/133 157/145/145
f 157/145/145 146/134/134 158/24/24
f 25/136/136 148/135/135 26/147/147
f 148/135/135 149/137/137 159/146/146
f 149/137/137 150/138/138 160/148/148
f 150/138/138 151/139/139 161/149/149
f 151/139/139 152/140/140 162/150/150
f 152/140/140 153/141/141 163/151/151
f 164/152/152 153/141/141 165/153/153
f 165/153/153 154/142/142 166/154/154
f 166/154/154 155/143/143 167/155/155
f 167/155/155 156/144/144 168/156/156
f 168/156/156 157/145/145 169/1/1
f 26/147/147 159/146/146 2/158/158
f 159/146/146 160/148/148 27/157/157
f 160/148/148 161/149/149 28/159/159
f 161/149/149 162/150/150 29/160/160
f 162/150/150 163/151/151 30/161/161
f 163/151/151 164/152/152 31/162/162
f 32/163/163 164/152/152 33/164/164
f 33/164/164 165/153/153 34/165/165
f 34/165/165 166/154/154 35/166/166
f 35/166/166 167/155/155 36/167/167
f 36/167/167 168/156/156 37/168/168
